<svg xmlns="http://www.w3.org/2000/svg" version="1.1" xmlns:xlink="http://www.w3.org/1999/xlink" xmlns:svgjs="http://svgjs.dev/svgjs" width="1000" height="1000" viewBox="0 0 1000 1000"><rect width="1000" height="1000" fill="#000000"></rect><g transform="matrix(0.7,0,0,0.7,149.57575757575756,282.1265587044535)"><svg viewBox="0 0 396 247" data-background-color="#ffffff" preserveAspectRatio="xMidYMid meet" height="623" width="1000" xmlns="http://www.w3.org/2000/svg" xmlns:xlink="http://www.w3.org/1999/xlink"><defs></defs><g id="tight-bounds" transform="matrix(1,0,0,1,0.2400000000000091,-0.09999999999999432)"><svg viewBox="0 0 395.52 247.2" height="247.2" width="395.52"><g><svg></svg></g><g><svg viewBox="0 0 395.52 247.2" height="247.2" width="395.52"><g><path d="M206.919 26.41c-11.243 0-22.076 1.877-32.499 5.631l-20.004 0c3.66-2.075 7.491-3.968 11.492-5.679 13.013-5.609 26.683-8.414 41.011-8.414 17.853 0 34.44 4.151 49.761 12.453 0.989 0.535 1.965 1.081 2.93 1.64l-19.856 0c-10.398-3.754-21.343-5.631-32.835-5.631zM206.919 220.79c11.443 0 22.352-1.877 32.727-5.631l19.968 0c-0.998 0.576-2.008 1.139-3.03 1.688-15.353 8.269-31.908 12.404-49.665 12.405-14.327 0-27.997-2.805-41.011-8.414-4.001-1.711-7.832-3.604-11.492-5.679l20.004 0c10.422 3.754 21.255 5.631 32.499 5.631z" fill="#50a060" data-fill-palette-color="tertiary"></path></g><g transform="matrix(1,0,0,1,100.8738326891992,37.08)"><svg viewBox="0 0 193.77233462160157 173.04" height="173.04" width="193.77233462160157"><g><svg viewBox="0 0 395.52 353.20202408486784" height="173.04" width="193.77233462160157"><g transform="matrix(1,0,0,1,0,232.50269103689237)"><svg viewBox="0 0 395.52 120.69933304797547" height="120.69933304797547" width="395.52"><g><svg viewBox="0 0 395.52 120.69933304797547" height="120.69933304797547" width="395.52"><g><svg viewBox="0 0 395.52 120.69933304797547" height="120.69933304797547" width="395.52"><g transform="matrix(1,0,0,1,0,0)"><svg width="395.52" viewBox="0.13702392578125 -35.578521728515625 168.9959259033203 51.57183837890625" height="120.69933304797547" data-palette-color="#50a060"><path d="M29.498-16.123v0l-1.167 1.24c-1.145-1.052-2.482-1.785-4.011-2.198-1.521-0.409-3.073-0.426-4.657-0.053v0c-2.57 0.606-4.549 2.031-5.937 4.276-1.389 2.245-1.78 4.653-1.174 7.223 0.606 2.57 2.031 4.549 4.276 5.937 2.245 1.389 4.653 1.78 7.222 1.174v0c1.583-0.373 2.963-1.089 4.138-2.147 1.183-1.053 2.052-2.306 2.607-3.758v0l1.585 0.664c-0.652 1.709-1.674 3.182-3.067 4.422-1.394 1.233-3.016 2.067-4.866 2.503v0c-1.486 0.35-2.975 0.397-4.467 0.139-1.492-0.258-2.848-0.764-4.067-1.518-1.219-0.754-2.277-1.741-3.174-2.961-0.897-1.22-1.521-2.573-1.871-4.058-0.35-1.486-0.397-2.975-0.139-4.468 0.258-1.492 0.764-2.848 1.518-4.066 0.754-1.219 1.741-2.277 2.96-3.174 1.22-0.897 2.573-1.521 4.059-1.872v0c1.862-0.439 3.693-0.415 5.493 0.072 1.801 0.493 3.381 1.367 4.739 2.623zM31.837-18.709v0l-1.196 1.248c-1.554-1.421-3.37-2.411-5.447-2.97-2.07-0.56-4.179-0.587-6.327-0.08v0c-2.304 0.543-4.292 1.611-5.964 3.204-1.672 1.593-2.848 3.493-3.526 5.701-0.678 2.208-0.746 4.464-0.203 6.767 0.543 2.304 1.611 4.292 3.204 5.964 1.593 1.672 3.493 2.848 5.701 3.526 2.208 0.678 4.464 0.746 6.767 0.202v0c2.148-0.506 4.025-1.476 5.633-2.91 1.612-1.442 2.798-3.153 3.557-5.133v0l1.609 0.638c-0.86 2.251-2.201 4.187-4.024 5.809-1.823 1.622-3.948 2.718-6.375 3.29v0c-2.602 0.613-5.158 0.538-7.667-0.227-2.509-0.765-4.666-2.099-6.471-4.002-1.806-1.91-3.016-4.162-3.627-6.758-0.613-2.602-0.538-5.158 0.227-7.667 0.765-2.509 2.099-4.666 4.002-6.471 1.903-1.805 4.156-3.014 6.758-3.627v0c2.427-0.572 4.818-0.54 7.173 0.097 2.356 0.637 4.421 1.77 6.196 3.399zM34.216-21.253v0l-1.195 1.248c-1.982-1.814-4.293-3.074-6.932-3.781-2.641-0.713-5.314-0.751-8.02-0.112v0c-2.174 0.512-4.156 1.428-5.948 2.748-1.787 1.312-3.228 2.853-4.325 4.625-1.096 1.772-1.832 3.75-2.207 5.935-0.382 2.186-0.316 4.369 0.198 6.549 0.512 2.174 1.428 4.156 2.748 5.948 1.312 1.787 2.853 3.228 4.626 4.324 1.772 1.096 3.75 1.832 5.935 2.208 2.192 0.38 4.376 0.314 6.549-0.198v0c2.725-0.642 5.103-1.874 7.132-3.695 2.038-1.816 3.538-3.978 4.502-6.486v0l1.599 0.681c-1.067 2.765-2.725 5.146-4.974 7.142-2.25 1.989-4.871 3.337-7.862 4.041v0c-3.212 0.757-6.368 0.662-9.468-0.285-3.094-0.949-5.756-2.599-7.989-4.949-2.231-2.344-3.725-5.122-4.482-8.334-0.757-3.212-0.662-6.368 0.286-9.468 0.947-3.1 2.593-5.765 4.937-7.996 2.352-2.226 5.134-3.717 8.346-4.474v0c3.004-0.708 5.963-0.666 8.876 0.127 2.918 0.785 5.474 2.186 7.668 4.202zM36.526-23.832v0l-1.186 1.246c-2.401-2.194-5.195-3.717-8.381-4.569-3.187-0.851-6.416-0.892-9.687-0.121v0c-2.628 0.62-5.025 1.726-7.19 3.318-2.159 1.591-3.903 3.461-5.232 5.611-1.329 2.149-2.223 4.545-2.683 7.187-0.459 2.643-0.378 5.281 0.243 7.915 0.62 2.628 1.726 5.025 3.318 7.191 1.591 2.159 3.461 3.903 5.61 5.232 2.149 1.329 4.545 2.223 7.188 2.683 2.649 0.458 5.288 0.377 7.915-0.243v0c3.27-0.771 6.143-2.256 8.618-4.456 2.473-2.206 4.294-4.827 5.461-7.863v0l1.606 0.711c-1.275 3.28-3.252 6.106-5.933 8.477-2.679 2.378-5.797 3.986-9.353 4.825v0c-2.868 0.676-5.735 0.76-8.602 0.25-2.872-0.501-5.474-1.473-7.807-2.916-2.333-1.443-4.366-3.337-6.097-5.683-1.736-2.337-2.942-4.94-3.618-7.808-0.676-2.868-0.76-5.739-0.252-8.612 0.503-2.865 1.476-5.464 2.918-7.798 1.443-2.333 3.337-4.366 5.683-6.096 2.337-1.736 4.94-2.942 7.808-3.618v0c3.569-0.841 7.084-0.793 10.545 0.144 3.461 0.938 6.497 2.602 9.108 4.993zM68.196-6.077l-7.305 0.605 0.554-1.791 5.91-0.49zM69.879-2.724l-10.046 0.832 0.524-1.789 8.641-0.716zM71.521 0.622l-12.747 1.056 0.524-1.79 11.351-0.94zM56.8-31.111l-11.703 38.718-1.873 0.155 12.446-41.128 1.874-0.155 19.035 38.52-1.853 0.153zM46.951 7.454l10.41-34.468 1.169 2.131-9.735 32.184zM50.678 7.145l8.984-29.754 1.114 2.306-8.224 27.293zM54.405 6.836l7.486-24.833 1.108 2.357-6.74 22.322zM68.706-34.446l19.055 38.518-1.874 0.156-19.035-38.52zM63.125-33.983l1.853-0.154 19.056 38.518-1.854 0.154zM59.398-33.675l1.853-0.153 19.056 38.518-1.874 0.155zM111.109-4.677l-11.826-0.756 1.22-19.081c0 0 3.942 0.252 11.826 0.756v0c1.909 0.122 3.49 1.162 4.741 3.119 1.257 1.964 1.802 4.254 1.635 6.869v0c-0.169 2.635-1.001 4.839-2.498 6.614-1.49 1.775-3.189 2.602-5.098 2.479zM102.129-22.667l-0.999 15.609 10.09 0.645c1.43 0.091 2.703-0.592 3.818-2.051 1.116-1.465 1.742-3.272 1.88-5.421v0c0.139-2.169-0.252-4.044-1.173-5.626-0.921-1.582-2.097-2.419-3.527-2.51v0zM98.877-26.352l-1.441 22.534 13.562 0.868c2.388 0.153 4.518-0.82 6.39-2.918 1.864-2.092 2.895-4.688 3.093-7.789v0c0.131-2.042-0.145-3.954-0.826-5.734-0.687-1.788-1.667-3.226-2.94-4.317-1.28-1.084-2.705-1.676-4.275-1.776v0zM110.887-1.214l-15.298-0.978 1.663-26.007 15.299 0.978c1.876 0.12 3.589 0.811 5.138 2.073 1.55 1.255 2.736 2.914 3.559 4.977 0.83 2.057 1.17 4.267 1.019 6.628v0c-0.15 2.342-0.768 4.487-1.854 6.435-1.08 1.948-2.468 3.446-4.165 4.493-1.697 1.054-3.484 1.521-5.361 1.401zM95.636-30.046l-1.885 29.48 17.025 1.089c2.196 0.14 4.28-0.388 6.254-1.584 1.967-1.197 3.585-2.89 4.854-5.081 1.269-2.197 1.989-4.626 2.16-7.287v0c0.169-2.648-0.235-5.146-1.214-7.493-0.979-2.341-2.372-4.23-4.177-5.668-1.812-1.439-3.809-2.228-5.991-2.367v0zM110.665 2.259l-18.762-1.2 2.108-32.952 18.762 1.199c2.502 0.16 4.79 1.045 6.864 2.654 2.075 1.609 3.673 3.722 4.795 6.339 1.122 2.617 1.588 5.412 1.398 8.386-0.19 2.967-1.008 5.681-2.454 8.14-1.446 2.453-3.301 4.345-5.564 5.677-2.263 1.332-4.645 1.917-7.147 1.757zM92.385-33.731l-2.328 36.406 20.498 1.311c2.102 0.134 4.162-0.218 6.18-1.058 2.024-0.833 3.8-2.015 5.327-3.547 1.534-1.532 2.803-3.398 3.805-5.599 1.002-2.2 1.582-4.528 1.739-6.983 0.157-2.455-0.122-4.834-0.836-7.138-0.714-2.304-1.735-4.316-3.061-6.038-1.32-1.721-2.93-3.127-4.83-4.217-1.895-1.083-3.893-1.692-5.996-1.826v0zM110.444 5.722v0l-22.235-1.422 2.551-39.879 22.234 1.423c3.127 0.2 5.991 1.278 8.591 3.234 2.6 1.957 4.611 4.517 6.032 7.681 1.414 3.17 2.006 6.555 1.776 10.154v0c-0.172 2.694-0.816 5.245-1.933 7.652-1.109 2.401-2.515 4.442-4.219 6.124-1.704 1.681-3.678 2.978-5.92 3.89-2.243 0.912-4.535 1.293-6.877 1.143zM153.32 0.64l-7.17-1.524 1.046-1.556 5.801 1.232zM153.965 4.335l-9.859-2.096 1.017-1.562 8.48 1.802zM154.574 8.012l-12.51-2.659 1.017-1.563 11.141 2.368zM149.615-26.616l-22.357 33.709-1.838-0.391 23.763-35.802 1.838 0.391 7.137 42.37-1.819-0.387zM129.078 7.479l19.894-30.009 0.507 2.377-18.592 28.017zM132.736 8.257l17.172-25.906 0.403 2.529-15.736 23.768zM136.394 9.034l14.32-21.625 0.382 2.576-12.882 19.436zM161.977-26.381l7.156 42.374-1.839-0.391-7.137-42.369zM156.499-27.545l1.819 0.387 7.157 42.374-1.82-0.387zM152.841-28.322l1.819 0.386 7.156 42.374-1.839-0.391z" opacity="1" transform="matrix(1,0,0,1,0,0)" fill="#ffffff" class="undefined-text-0" data-fill-palette-color="primary" id="text-0"></path></svg></g></svg></g></svg></g></svg></g><g transform="matrix(1,0,0,1,81.28933981867354,0)"><svg viewBox="0 0 232.9413203626529 195.2915208716243" height="195.2915208716243" width="232.9413203626529"><g><svg xmlns="http://www.w3.org/2000/svg" xmlns:xlink="http://www.w3.org/1999/xlink" version="1.1" x="0" y="0" viewBox="6.618578910827637 13.784685134887695 79.57721710205078 66.71532440185547" style="enable-background:new 0 0 91 91;" xml:space="preserve" height="195.2915208716243" width="232.9413203626529" class="icon-icon-0" data-fill-palette-color="accent" id="icon-0"><g fill="#50a060" data-fill-palette-color="accent"><path d="M23.7 55c-0.1 0-0.1-0.1-0.2-0.1l-4.4-3.2c-0.9-0.7-2.7-1.6-3.4-1.2-1.2 0.6-1.2 2.1-1.1 2.7 0 0.1 0.1 0.2 0.2 0.3 5.3 1.6 13.1 4.6 14.6 5.2 0 0 0.1 0 0.1 0l1 0.1c0 0 0 0 0 0 0.1 0 0.3-0.1 0.3-0.2 0-0.1 0-0.3-0.2-0.4L23.7 55z" fill="#ffffff" data-fill-palette-color="accent"></path><path d="M84.6 63.4c-0.1-0.1-0.2-0.2-0.3-0.2-0.7 0.1-3.4 0.4-5.9 0-0.1 0-0.2 0-0.3 0.1-0.1 0.1-0.1 0.2 0 0.3 0.3 0.6 0.4 1 0.5 1.1 0.2 0.5-0.1 1-0.6 1.2-0.5 0.2-1-0.1-1.2-0.6 0-0.1-3.4-9.5-14.3-13-9.3-2.9-17.5-3.4-18.4-3.5 0 0-2.9-0.1-3.6 1.4-0.4 0.9-0.3 1.9 0.1 2.7 0.4 0.7 1 1.2 1.8 1.4 8.6 1.5 13.5 6 13.7 6.1 0.3 0.3 0.4 0.7 0.2 1.1-0.2 0.4-0.5 0.6-0.9 0.6L37 61c0 0-0.1 0-0.1 0 0 0-0.1 0-0.1 0L29 60.5c-0.1 0-0.2 0-0.3-0.1-0.1-0.1-13.7-5.5-18-6.1-0.3-0.1-3-0.5-3.7 1.1L7 55.7c-0.4 0.8-1.1 2.2 1.7 3.8 4.3 2.6 34.5 13.5 38 14.8l25.6 5.3 10.6 0.9c0 0 0 0 0 0 0.1 0 0.2 0 0.2-0.1C88.3 74.4 85.6 65.9 84.6 63.4z" fill="#ffffff" data-fill-palette-color="accent"></path><path d="M38.5 23.6c0.5-0.4 1.3-0.4 1.8 0.1 0.4 0.5 0.4 1.3-0.1 1.8-0.3 0.2-4.3 3.8-6.2 10 4-0.7 7.7-3.2 10.2-7 2.7-4.2 3.5-9.2 2.3-13.8-0.2-0.6-0.7-1-1.3-0.9-4.5 0.4-8.7 3-11.4 7.2v0c-2.7 4.2-3.5 9.2-2.3 13.8 0 0.1 0.1 0.2 0.1 0.3C33.7 27.8 38.5 23.7 38.5 23.6z" fill="#ffffff" data-fill-palette-color="accent"></path><path d="M32.8 35.7c0 0-0.1 0-0.1 0-0.5 0-0.9-0.3-1.1-0.7-0.2 0.8-0.4 1.6-0.5 2.4-1.1-1.9-2.7-3.6-4.6-5.1 0 0 0 0 0 0-3.9-2.9-8.7-4.1-13.1-3.3-0.6 0.1-1.1 0.7-1 1.3 0.2 4.3 2.6 8.4 6.5 11.3 3.1 2.3 6.8 3.5 10.4 3.5 0.6 0 1.1 0 1.7-0.1 0.2 1.7 0.6 3.5 1.2 5.3 0.2 0.5 0.7 0.9 1.2 0.9 0.1 0 0.3 0 0.4-0.1 0.7-0.2 1-0.9 0.8-1.6C32.6 44 32.9 39.3 34 35.5 33.6 35.6 33.2 35.6 32.8 35.7z" fill="#ffffff" data-fill-palette-color="accent"></path></g></svg></g></svg></g><g></g></svg></g></svg></g></svg></g></svg><rect width="395.52" height="247.2" fill="none" stroke="none" visibility="hidden"></rect></g></svg></g></svg>